<svg xmlns="http://www.w3.org/2000/svg" viewBox="0 0 228.08 242.12"><defs><style>.cls-1{fill:#fff;}</style></defs><g id="Layer_2" data-name="Layer 2"><g id="Layer_1-2" data-name="Layer 1"><path class="cls-1" d="M120.19,148.44a16.3,16.3,0,1,0-16.29,16.3,16.29,16.29,0,0,0,16.29-16.3Zm-5.47,0a10.83,10.83,0,1,1-10.82-10.81,10.82,10.82,0,0,1,10.82,10.81Z"/><path class="cls-1" d="M153.69,87.73c-8.88-3.91-22.2-3.16-31.6-.25,14.26-12.69,25.85-24.33,24.22-44.29a36.74,36.74,0,0,0-20.08-29C111.49,7,96.32,14.68,95,0,86.5,6.1,66.73,20.53,63.44,37.18c-4.21,21.3,3.63,37.54,11.14,51.75A44.29,44.29,0,1,0,86.2,107c.3.37,3,2.31,3.85,2.93,5,3.8,11.65,6.11,13.88,11.63,17.62-2.67,17.62,12.78,36,3.57,6.37,1.7,18.85.43,24-12.61,3.58-9.15-1.07-20.77-10.24-24.81ZM66.07,120.19A21.79,21.79,0,1,1,44.28,98.4a21.79,21.79,0,0,1,21.79,21.79Z"/><path class="cls-1" d="M64.51,120.23A20.27,20.27,0,1,0,44.24,140.5a20.26,20.26,0,0,0,20.27-20.27Zm-10.76,0a9.42,9.42,0,1,1-9.42-9.41,9.42,9.42,0,0,1,9.42,9.41Z"/><path class="cls-1" d="M103.9,152.78a4.33,4.33,0,1,0-4.32-4.33,4.32,4.32,0,0,0,4.32,4.33Z"/><path class="cls-1" d="M98.77,241.83l4.37-11.39-2,.18L98.41,238l-.72,2.3-.57-2.21-2.42-7.73-1.93.35,3.66,11.09Zm19.88-14.45a9,9,0,0,0-4.24-1c-3.72,0-5.38,2.23-5.38,4.34,0,2.58,1.5,3.66,4.14,4.33s4,1.19,4,3.06c0,1.61-1.31,2.46-3.68,2.46a8.24,8.24,0,0,1-4.69-1.34l-.23,1.66c1.17,1,3.4,1.26,4.83,1.26,3.84,0,5.84-1.77,5.84-4.34,0-3-2.39-3.71-5-4.37S111,232,111,230.49s1.13-2.56,2.9-2.56a9.89,9.89,0,0,1,4.49,1.29l.23-1.84Zm3.47,14.45h1.95v-6.44h2.76l4.7,6.44h2.41l-4.9-6.56c2.51-.41,4-1.91,4-4.51,0-2.34-1.36-4.09-4.67-4.09h-6.23v15.16Zm5.79-13.67c2.1,0,3.09.83,3.09,2.86,0,1.72-.95,2.85-3.5,2.85h-3.43v-5.71Z"/><path class="cls-1" d="M101.67,203a4.56,4.56,0,0,0-2.69-.69c-2.46,0-5.24,1.49-5.24,6.12,0,3.63,1.7,5.72,4.71,5.72a3.53,3.53,0,0,0,3.27-1.4v1.11h1.93v-17l-2,.23V203Zm-2.76,9.64c-2.11,0-3.08-1.38-3.08-4.35,0-3.17,1.13-4.46,3.45-4.46a4.85,4.85,0,0,1,2.39.66v7.16a4.22,4.22,0,0,1-2.76,1Zm17-10.19-2,.23-2.74,7-.71,2-.51-2-2.41-7.34-2,.35,3.84,10.86a21.14,21.14,0,0,1-3.2,4.18l2,.9a37.76,37.76,0,0,0,4.87-8.93l2.92-7.33Zm8.7.76a6.19,6.19,0,0,0-3.29-.9c-2.92,0-4.32,1.68-4.32,3.43,0,2.07,1.42,2.94,3.42,3.35,1.77.37,2.74.67,2.74,1.87,0,.92-.58,1.65-2.42,1.65a7.39,7.39,0,0,1-3.81-1l-.26,1.57a7.1,7.1,0,0,0,3.87,1c3,0,4.57-1.56,4.57-3.49,0-2.16-1.67-2.69-3.77-3.2-1.79-.46-2.5-.8-2.5-1.88s.71-1.73,2-1.73a7.61,7.61,0,0,1,3.52,1.13l.21-1.77Zm1.56.89H128v7c0,2,.74,3,2.83,3a5.44,5.44,0,0,0,3.54-1.17l-.27-1.32a7.29,7.29,0,0,1-3.08.9c-.79,0-1-.21-1-1.31v-7.11h3.38l.41-1.49H130V199l-1.8.62-.16,2.95h-1.84v1.49Zm10.12,9.76h2v-7.07a17.27,17.27,0,0,1,4.35-2.57l-.55-2a11.81,11.81,0,0,0-3.87,3.09l0-2.9-1.93.23v11.18Zm12.38-11.55c-2.81,0-5.25,1.91-5.25,5.91,0,3.29,1.15,5.93,5.25,5.93,3,0,5.26-1.84,5.26-5.93,0-3.56-1.28-5.91-5.26-5.91Zm3.19,5.89c0,3.13-.89,4.44-3.19,4.44-2.1,0-3.18-1.34-3.18-4.44s.92-4.35,3.18-4.35,3.19,1.27,3.19,4.35Zm3.59-4.1h1.73v9.76h2v-9.76h2.71l.42-1.49h-3.13V201c0-2.09.39-2.78,1.49-2.78a5.57,5.57,0,0,1,1.89.34l.18-1.49a4.49,4.49,0,0,0-1.72-.3c-2.62,0-3.84,1.7-3.84,4.67v1.17h-1.73v1.49Zm8.6,9.76h2V202.36l-2,.28v11.18ZM163.75,199a1.24,1.24,0,0,0,1.36,1.27,1.26,1.26,0,0,0,1.35-1.27,1.28,1.28,0,0,0-1.35-1.28,1.27,1.27,0,0,0-1.36,1.28Zm6,14.82h2v-17l-2,.23v16.77Zm9.27,0-4.65-5.92,4.76-5.47-2.46.18-4.48,5.46,4.28,5.75Zm6.09-11.55c-2.8,0-5.24,1.91-5.24,5.91,0,3.29,1.15,5.93,5.24,5.93,3,0,5.27-1.84,5.27-5.93,0-3.56-1.29-5.91-5.27-5.91Zm3.2,5.89c0,3.13-.9,4.44-3.2,4.44-2.09,0-3.17-1.34-3.17-4.44s.92-4.35,3.17-4.35,3.2,1.27,3.2,4.35Zm9.41,5.66,4.37-11.39-2,.18L197.35,210l-.71,2.3-.58-2.21-2.41-7.73-1.93.35,3.65,11.09Z"/><path class="cls-1" d="M94.47,185.81h2v-8.93a4.18,4.18,0,0,1,2.72-1c1.72,0,2.23.92,2.23,2.14v7.82h2V178a7,7,0,0,0-.12-1.26,4.69,4.69,0,0,1,2.72-.92,2,2,0,0,1,2.23,2.14v7.82h2V178c0-2.62-1.38-3.77-3.77-3.77a4.74,4.74,0,0,0-3.61,1.43,3.28,3.28,0,0,0-3.06-1.43,4.48,4.48,0,0,0-3.36,1.38V174.4l-2,.23v11.18Zm26.18-2.65a3.9,3.9,0,0,1-2.83,1.4c-1.34,0-2-.5-2-2.2v-8l-2,.28v7.77c0,3,1.52,3.7,3.43,3.7a3.87,3.87,0,0,0,3.36-1.56v1.27h2V174.4l-2,.23v8.53Zm12.76-8a6.19,6.19,0,0,0-3.29-.9c-2.92,0-4.32,1.68-4.32,3.43,0,2.07,1.42,2.94,3.43,3.35,1.77.37,2.73.67,2.73,1.87,0,.92-.57,1.65-2.41,1.65a7.43,7.43,0,0,1-3.82-1l-.25,1.57a7,7,0,0,0,3.86,1c3,0,4.58-1.56,4.58-3.49,0-2.16-1.68-2.69-3.77-3.2-1.8-.46-2.51-.8-2.51-1.88s.71-1.73,2-1.73a7.61,7.61,0,0,1,3.51,1.13l.21-1.77Zm3,10.65h2v-17l-2,.23v16.77Zm9.26,0L141,179.89l4.76-5.47-2.46.18-4.49,5.46,4.28,5.75Zm8.61-2.65a3.9,3.9,0,0,1-2.83,1.4c-1.34,0-2-.5-2-2.2v-8l-2,.28v7.77c0,3,1.52,3.7,3.43,3.7a3.87,3.87,0,0,0,3.36-1.56v1.27h2V174.4l-2,.23v8.53Zm5.68,2.65h2v-17l-2,.23v16.77Zm5.91-8.74a6.29,6.29,0,0,1,3.61-1.27c1.42,0,2.18.85,2.18,2.58v1.19l-1.56,0c-3.89.13-5.22,1.4-5.22,3.51s1.47,2.95,3.31,2.95a4,4,0,0,0,3.52-1.54v1.29h1.89V178c0-2.55-1.38-3.77-3.94-3.77a8.18,8.18,0,0,0-4.32,1.31l.53,1.5Zm2.85,7.54c-1.24,0-1.84-.64-1.84-1.66s.46-1.84,2.6-2c.73,0,1.29,0,2.18-.07v2.64a3.92,3.92,0,0,1-2.94,1.06Zm3.63-16.08-3.93,3.73,1.06.76,4.09-3-1.22-1.45Zm4.81,17.28h2v-7.07a17.27,17.27,0,0,1,4.35-2.57l-.56-2A11.78,11.78,0,0,0,179,177.3l0-2.9-1.93.23v11.18ZM187.37,177a3.8,3.8,0,0,1,2.64-1.1c2.05,0,2.49.92,2.49,2.14v7.82h2V178c0-2.62-1.36-3.77-3.82-3.77a4.4,4.4,0,0,0-3.36,1.45V174.4l-1.93.23v11.18h2V177Zm19.32-2.55-2.05.23-2.74,7-.71,2-.5-2-2.42-7.34-2,.35,3.84,10.86a21.14,21.14,0,0,1-3.2,4.18l2,.9a38.11,38.11,0,0,0,4.88-8.93l2.92-7.33Zm9.68.8a5.9,5.9,0,0,0-3.38-.94c-2.74,0-5.38,2.07-5.38,5.91,0,3.45,1.63,5.93,5.08,5.93a6.41,6.41,0,0,0,3.73-1.12l-.26-1.36a6.5,6.5,0,0,1-3.4.9c-1.84,0-3.06-1.34-3.06-4.35s1.24-4.32,3.06-4.32A6.3,6.3,0,0,1,216,177l.34-1.75ZM221,177a3.72,3.72,0,0,1,2.64-1c2,0,2.46.92,2.46,2.13v7.76h2V178c0-2.62-1.36-3.77-3.82-3.77a4.15,4.15,0,0,0-3.31,1.36v-6.81l-2,.23v16.77h2V177Z"/><path class="cls-1" d="M123.83,157.8h2v-7.07a17.27,17.27,0,0,1,4.35-2.57l-.55-2a11.81,11.81,0,0,0-3.87,3.09l0-2.9-1.94.23V157.8Zm12-11.48c-2.3,0-4.37,1.4-4.37,3.77a3.49,3.49,0,0,0,1.5,3.11,5.08,5.08,0,0,0-1.06,2.76,1.8,1.8,0,0,0,.48,1.4,2.64,2.64,0,0,0-1.77,2.37c0,1.79,1.61,2.8,4.9,2.8,3.91,0,6.07-1.65,6.07-3.7,0-2.41-2.23-2.74-5.26-2.74h-2.7a6.62,6.62,0,0,1,.14-2.5,6.37,6.37,0,0,0,2.07.3c2.49,0,4.37-1.43,4.37-3.8a3.24,3.24,0,0,0-.66-2.09h2.09l.41-1.41h-4.34a6.58,6.58,0,0,0-1.87-.27Zm.23,11.48c2.74,0,3.64.06,3.64,1.26s-1.68,2-4,2-3.33-.44-3.33-1.77a2.09,2.09,0,0,1,.78-1.54,1.87,1.87,0,0,0,.55.05ZM138.3,150c0,1.84-.9,2.56-2.44,2.56s-2.44-.74-2.44-2.56a2.44,2.44,0,1,1,4.88,0Zm5.84-1a6.31,6.31,0,0,1,3.61-1.27c1.43,0,2.19.85,2.19,2.58v1.19l-1.57,0c-3.88.13-5.22,1.4-5.22,3.51s1.47,3,3.31,3a4,4,0,0,0,3.52-1.54v1.29h1.89V150c0-2.55-1.38-3.77-3.93-3.77a8.22,8.22,0,0,0-4.33,1.31l.53,1.5ZM147,156.6c-1.24,0-1.84-.64-1.84-1.66s.46-1.84,2.6-2c.74-.05,1.29-.05,2.19-.07v2.64A4,4,0,0,1,147,156.6Zm10.42-7.66a3.82,3.82,0,0,1,2.65-1.1c2,0,2.48.92,2.48,2.14v7.82h2V150c0-2.62-1.35-3.77-3.82-3.77a4.37,4.37,0,0,0-3.35,1.45v-1.31l-1.94.23V157.8h2v-8.86Zm10.7,8.86h2V146.34l-2,.28V157.8ZM167.76,143a1.36,1.36,0,0,0,2.72,0,1.36,1.36,0,0,0-2.72,0Zm4.44,14.82h9.18l.27-1.57h-7.06l.81-.94,5.59-7.38.11-1.38H173v1.58h5.73l-.71.9-5.68,7.52-.12,1.27ZM184,149.06a6.29,6.29,0,0,1,3.61-1.27c1.42,0,2.18.85,2.18,2.58v1.19l-1.56,0c-3.89.13-5.22,1.4-5.22,3.51s1.47,3,3.31,3a4,4,0,0,0,3.52-1.54v1.29h1.88V150c0-2.55-1.38-3.77-3.93-3.77a8.16,8.16,0,0,0-4.32,1.31l.53,1.5Zm2.85,7.54c-1.24,0-1.84-.64-1.84-1.66s.46-1.84,2.6-2c.73-.05,1.29-.05,2.18-.07v2.64a3.92,3.92,0,0,1-2.94,1.06Zm3.63-16.08-3.93,3.73,1.06.76,4.09-3-1.22-1.45Zm12.88,6.67a5.9,5.9,0,0,0-3.38-.94c-2.74,0-5.38,2.07-5.38,5.91,0,3.45,1.63,5.93,5.08,5.93a6.39,6.39,0,0,0,3.73-1.12l-.25-1.36a6.56,6.56,0,0,1-3.41.9c-1.84,0-3.06-1.34-3.06-4.35s1.24-4.32,3.06-4.32a6.3,6.3,0,0,1,3.27,1.1l.34-1.75Zm2.58,10.61h2V146.34l-2,.28V157.8ZM205.57,143a1.36,1.36,0,0,0,2.72,0,1.36,1.36,0,0,0-2.72,0Zm6.26,6.08a6.29,6.29,0,0,1,3.61-1.27c1.43,0,2.19.85,2.19,2.58v1.19l-1.57,0c-3.89.13-5.22,1.4-5.22,3.51s1.47,3,3.31,3a4,4,0,0,0,3.52-1.54v1.29h1.89V150c0-2.55-1.38-3.77-3.94-3.77a8.18,8.18,0,0,0-4.32,1.31l.53,1.5Zm2.85,7.54c-1.24,0-1.84-.64-1.84-1.66s.46-1.84,2.6-2c.74-.05,1.29-.05,2.19-.07v2.64a4,4,0,0,1-2.95,1.06Z"/></g></g></svg>