<svg xmlns="http://www.w3.org/2000/svg" viewBox="0 0 165.14 165.42"><defs><style>.cls-1{fill:#fff;}</style></defs><g id="Layer_2" data-name="Layer 2"><g id="Layer_1-2" data-name="Layer 1"><path class="cls-1" d="M120.19,148.44a16.3,16.3,0,1,0-16.29,16.3,16.29,16.29,0,0,0,16.29-16.3Zm-5.47,0a10.83,10.83,0,1,1-10.82-10.81,10.82,10.82,0,0,1,10.82,10.81Z"/><path class="cls-1" d="M153.69,87.73c-8.88-3.91-22.2-3.16-31.6-.25,14.26-12.69,25.85-24.33,24.22-44.29a36.74,36.74,0,0,0-20.08-29C111.49,7,96.32,14.68,95,0,86.5,6.1,66.73,20.53,63.44,37.18c-4.21,21.3,3.63,37.54,11.14,51.75A44.29,44.29,0,1,0,86.2,107c.3.37,3,2.31,3.85,2.93,5,3.8,11.65,6.11,13.88,11.63,17.62-2.67,17.62,12.78,36,3.57,6.37,1.7,18.85.43,24-12.61,3.58-9.15-1.07-20.77-10.24-24.81ZM66.07,120.19A21.79,21.79,0,1,1,44.28,98.4a21.79,21.79,0,0,1,21.79,21.79Z"/><path class="cls-1" d="M64.51,120.23A20.27,20.27,0,1,0,44.24,140.5a20.26,20.26,0,0,0,20.27-20.27Zm-10.76,0a9.42,9.42,0,1,1-9.42-9.41,9.42,9.42,0,0,1,9.42,9.41Z"/><path class="cls-1" d="M103.9,152.78a4.33,4.33,0,1,0-4.32-4.33,4.32,4.32,0,0,0,4.32,4.33Z"/></g></g></svg>