<svg xmlns="http://www.w3.org/2000/svg" viewBox="0 0 483.61 87.46"><defs><style>.cls-1{fill:#fff;}</style></defs><g id="Layer_2" data-name="Layer 2"><g id="Layer_1-2" data-name="Layer 1"><path class="cls-1" d="M31.33,35.44l2.32.87c8.61,4.18,15.49-5.71,4.27-15.19L29,12.24l1.16-7.83C10.62,15.29.94,39.85,0,65.32v1A20.74,20.74,0,1,0,28.84,47.24l-.91-.39C20.42,43.31,24.37,32.54,31.33,35.44ZM28.57,22a2.33,2.33,0,1,1-2.32,2.32A2.32,2.32,0,0,1,28.57,22ZM21.89,76.86a10.59,10.59,0,1,1,9.38-9.38A10.61,10.61,0,0,1,21.89,76.86Zm-.63-5.8a4.75,4.75,0,1,1,4.2-4.21A4.75,4.75,0,0,1,21.26,71.06Z"/><path class="cls-1" d="M70.16,48.52l3.74-5.78a19.85,19.85,0,0,0,10.62,3.44,10.89,10.89,0,0,0,5.23-1A3.39,3.39,0,0,0,91.64,42,3.51,3.51,0,0,0,91,39.85a6,6,0,0,0-2.16-1.64c-1-.52-2.58-1.2-4.64-2l-1.34-.53a43.26,43.26,0,0,1-6-2.8,10.7,10.7,0,0,1-3.62-3.45,9.73,9.73,0,0,1-1.34-5.31,8.73,8.73,0,0,1,2-5.92,12,12,0,0,1,5.26-3.48A20.77,20.77,0,0,1,86,13.6a22.61,22.61,0,0,1,6.74,1.08,25.29,25.29,0,0,1,6.63,3.19l-3.77,5.72a27.46,27.46,0,0,0-4.94-2.46,13.94,13.94,0,0,0-4.64-.75,7.71,7.71,0,0,0-4.2.93,2.86,2.86,0,0,0-1.42,2.51A2.9,2.9,0,0,0,81,25.6a6,6,0,0,0,2.08,1.58A40.64,40.64,0,0,0,87.46,29l1.27.46a52.42,52.42,0,0,1,6,2.63,10.93,10.93,0,0,1,3.86,3.5,10.17,10.17,0,0,1,1.57,5.9,10.17,10.17,0,0,1-2,6.39,11.88,11.88,0,0,1-5.4,3.89,21.94,21.94,0,0,1-7.73,1.28A24.31,24.31,0,0,1,70.16,48.52ZM83,12.32,76.81,6,80.08,2.8l5.84,3.68,5.84-3.79L94.91,6l-6.18,6.31Z"/><path class="cls-1" d="M125.85,14.42l13.61,37.37v.46h-8.82l-3-9h-14l-3,9h-8.7v-.46l13.6-37.37Zm-10,22.13h9.58l-4.85-14.42Z"/><path class="cls-1" d="M145,47.79q-4.41-5.3-4.4-14.16,0-7.19,2.45-11.65a14.61,14.61,0,0,1,6.51-6.42,20.8,20.8,0,0,1,9.13-2,24,24,0,0,1,6.54.85,25.29,25.29,0,0,1,6,2.6l-3.11,6.13a16.38,16.38,0,0,0-9-2.69q-9.93,0-9.92,12.67,0,6.3,2.76,9.58a9.64,9.64,0,0,0,7.8,3.26,13.74,13.74,0,0,0,4.52-.67,23.41,23.41,0,0,0,4.05-1.89l3.23,5.83a30.54,30.54,0,0,1-6.16,2.84,20.89,20.89,0,0,1-6.39,1Q149.44,53.07,145,47.79Z"/><path class="cls-1" d="M202,14.42H210V52.25H202V36.55H184.41v15.7h-8.06V14.42h8.06V29.54H202Z"/><path class="cls-1" d="M225,50.56a16,16,0,0,1-6.4-7,23.53,23.53,0,0,1-2.16-10.36A21.09,21.09,0,0,1,219,22.27a16.5,16.5,0,0,1,7-6.54,21.67,21.67,0,0,1,9.66-2.13A19.87,19.87,0,0,1,246,16.11a15.88,15.88,0,0,1,6.37,7,23.82,23.82,0,0,1,2.13,10.36,21.28,21.28,0,0,1-2.6,10.95,16.26,16.26,0,0,1-7,6.54,21.67,21.67,0,0,1-9.66,2.13A19.87,19.87,0,0,1,225,50.56Zm16.17-5.81a9.36,9.36,0,0,0,3.62-4.44,17.63,17.63,0,0,0,1.19-6.8q0-6.18-2.62-9.66a9,9,0,0,0-7.65-3.47c-3.5,0-6.17,1.13-8,3.41s-2.74,5.4-2.74,9.37q0,6.2,2.62,9.66a9.07,9.07,0,0,0,7.71,3.48A10.7,10.7,0,0,0,241.13,44.75Z"/><path class="cls-1" d="M284.3,14.42h8.47v.47L278.93,52.25h-9.16l-13.9-37.36v-.47h8.76l9.86,29.48Z"/><path class="cls-1" d="M329.9,14.42v.47l-14,21.6V52.25h-8.06V36.72L294.17,14.89v-.47h9.34L312,29l8.88-14.6Zm-21.25-2.68-2.57-3.68L316.53,0l3.91,6.31Z"/><path class="cls-1" d="M365.1,32.29l15.76,19.5v.46H370.67L355.93,33.51V52.25h-8.05V14.42h8.05V31.94l14.68-17.52h9.44v.47Z"/><path class="cls-1" d="M393.59,45.13H411v7.12H385.53V14.42h8.06Z"/><path class="cls-1" d="M420.39,50.94A12.64,12.64,0,0,1,415,45.16a20,20,0,0,1-1.66-8.32V14.42h8.06V35.85q0,4.9,2,7.62t6.89,2.71c3.13,0,5.32-.9,6.6-2.71a11.93,11.93,0,0,0,1.92-7v-22h8.06V36.66a17.91,17.91,0,0,1-2.22,9.43,13,13,0,0,1-6,5.32,22.16,22.16,0,0,1-8.84,1.66A18.55,18.55,0,0,1,420.39,50.94Z"/><path class="cls-1" d="M480.37,34.36a8.51,8.51,0,0,1,2.45,3.12,8.83,8.83,0,0,1,.79,3.68,9.75,9.75,0,0,1-3.73,8.2q-3.74,2.89-10.69,2.89H454.36V14.42H468.2a20.39,20.39,0,0,1,7.62,1.26,10.12,10.12,0,0,1,4.7,3.5,9,9,0,0,1,1.57,5.28,8,8,0,0,1-1.45,4.64,9,9,0,0,1-4.38,3.24A10.56,10.56,0,0,1,480.37,34.36ZM462.42,21v8.82h4.66q6.5,0,6.49-4.62A3.66,3.66,0,0,0,472.13,22,7,7,0,0,0,467.91,21Zm11.12,23.32a4.39,4.39,0,0,0,1.55-3.53,4.17,4.17,0,0,0-1.61-3.44A7.68,7.68,0,0,0,468.61,36h-6.19V45.6h5.95Q472,45.6,473.54,44.28Z"/><path class="cls-1" d="M90.51,69.06v18H86.68V75.87a24.66,24.66,0,0,1-1.23,2.7l-3.13,6.28h-3l-3.18-6.28a24.25,24.25,0,0,1-1.23-2.7v11.2H71v-18h4.06L79.2,77c.31.61.61,1.23.89,1.87s.5,1.2.66,1.68A23.79,23.79,0,0,1,82.33,77l4.18-7.9Z"/><path class="cls-1" d="M97.41,86.45a6.09,6.09,0,0,1-2.55-2.75,9.44,9.44,0,0,1-.79-4V69.06h3.84v10.2a6.05,6.05,0,0,0,.94,3.63,3.81,3.81,0,0,0,3.29,1.29,3.59,3.59,0,0,0,3.14-1.29,5.67,5.67,0,0,0,.91-3.35V69.06H110V79.65A8.48,8.48,0,0,1,109,84.14a6.15,6.15,0,0,1-2.88,2.53,10.4,10.4,0,0,1-4.21.79A8.78,8.78,0,0,1,97.41,86.45Z"/><path class="cls-1" d="M112.14,85.29l1.78-2.75A9.37,9.37,0,0,0,119,84.18a5.09,5.09,0,0,0,2.49-.5,1.61,1.61,0,0,0,.9-1.5,1.7,1.7,0,0,0-.29-1,2.81,2.81,0,0,0-1-.78c-.49-.25-1.23-.57-2.21-1l-.64-.25a19.62,19.62,0,0,1-2.86-1.34,5,5,0,0,1-1.73-1.64,4.65,4.65,0,0,1-.63-2.53,4.15,4.15,0,0,1,1-2.82,5.66,5.66,0,0,1,2.5-1.65,9.93,9.93,0,0,1,3.25-.53,10.84,10.84,0,0,1,3.21.51,12.26,12.26,0,0,1,3.16,1.52l-1.8,2.72a13,13,0,0,0-2.35-1.16,6.57,6.57,0,0,0-2.21-.37,3.63,3.63,0,0,0-2,.45,1.38,1.38,0,0,0-.68,1.2,1.41,1.41,0,0,0,.28.84,2.87,2.87,0,0,0,1,.75,17.48,17.48,0,0,0,2.07.88l.61.22a26.53,26.53,0,0,1,2.86,1.25,5.2,5.2,0,0,1,1.83,1.67,4.83,4.83,0,0,1,.75,2.81,4.91,4.91,0,0,1-.94,3,5.68,5.68,0,0,1-2.58,1.85,10.33,10.33,0,0,1-3.68.61A11.54,11.54,0,0,1,112.14,85.29Z"/><path class="cls-1" d="M137.52,77.57,145,86.85v.22h-4.86l-7-8.92v8.92h-3.84v-18h3.84V77.4l7-8.34h4.49v.22Z"/><path class="cls-1" d="M150.2,86.45a6,6,0,0,1-2.54-2.75,9.44,9.44,0,0,1-.8-4V69.06h3.84v10.2a6.05,6.05,0,0,0,.94,3.63,3.82,3.82,0,0,0,3.29,1.29,3.59,3.59,0,0,0,3.14-1.29,5.67,5.67,0,0,0,.91-3.35V69.06h3.84V79.65a8.58,8.58,0,0,1-1,4.49,6.25,6.25,0,0,1-2.88,2.53,10.47,10.47,0,0,1-4.21.79A8.82,8.82,0,0,1,150.2,86.45Z"/><path class="cls-1" d="M170.22,83.68h8.28v3.39H166.38v-18h3.84Z"/><path class="cls-1" d="M190.62,69.06l6.48,17.79v.22h-4.2l-1.44-4.31h-6.68l-1.42,4.31h-4.14v-.22l6.48-17.79Zm-4.06-1.28L185.34,66l5-3.84,1.87,3Zm-.72,11.82h4.56l-2.31-6.87Z"/><path class="cls-1" d="M213.72,86.85v.22h-4.41l-4.52-6.56h-1.52v6.56h-3.84v-18h6a9.57,9.57,0,0,1,4,.74,5.25,5.25,0,0,1,2.37,2,5.35,5.35,0,0,1,.78,2.87A5.32,5.32,0,0,1,208.89,80Zm-10.45-9.31H205a4.54,4.54,0,0,0,2.63-.64,2.4,2.4,0,0,0,.92-2.11,2.26,2.26,0,0,0-.82-1.92,3.66,3.66,0,0,0-2.3-.64h-2.16Z"/><path class="cls-1" d="M232.13,69.06v18h-4.28l-5.67-8.39c-.48-.74-.89-1.39-1.22-1.93a18.59,18.59,0,0,1-1-1.85V87.07h-3.84v-18h4.23l6.16,9.23c.08.11.24.37.51.76s.49.78.71,1.13a10.28,10.28,0,0,1,.54,1V69.06Z"/><path class="cls-1" d="M251.45,69.06v.22l-6.67,10.29v7.5h-3.84V79.68l-6.5-10.4v-.22h4.44l4.06,7,4.23-7Z"/><path class="cls-1" d="M253.66,85a10.2,10.2,0,0,1-2.1-6.74,11.49,11.49,0,0,1,1.17-5.55,7,7,0,0,1,3.1-3.06,9.91,9.91,0,0,1,4.35-.93,11.26,11.26,0,0,1,3.11.4,12.08,12.08,0,0,1,2.84,1.24l-1.48,2.92A7.84,7.84,0,0,0,260.34,72q-4.72,0-4.72,6a6.93,6.93,0,0,0,1.31,4.56,4.61,4.61,0,0,0,3.72,1.56,6.62,6.62,0,0,0,2.15-.32,10.65,10.65,0,0,0,1.93-.9l1.54,2.78A14.1,14.1,0,0,1,263.33,87a9.77,9.77,0,0,1-3,.46C257.27,87.46,255.06,86.63,253.66,85Z"/><path class="cls-1" d="M280.78,69.06h3.83v18h-3.83V79.6h-8.37v7.47h-3.84v-18h3.84v7.2h8.37Z"/><path class="cls-1" d="M318.15,71.1c1.72,1.36,2.58,3.69,2.58,7a8.81,8.81,0,0,1-1.36,5,8.19,8.19,0,0,1-3.63,3,12.48,12.48,0,0,1-5,1h-5.86v-18h6C314,69.06,316.42,69.74,318.15,71.1ZM313.8,83.22A3.71,3.71,0,0,0,316,81.54a6.88,6.88,0,0,0,.72-3.47,7,7,0,0,0-.65-3.31A3.79,3.79,0,0,0,314.09,73a8.29,8.29,0,0,0-3.22-.54h-2.15V83.68H310A12.6,12.6,0,0,0,313.8,83.22Z"/><path class="cls-1" d="M337.89,69.06v.22l-6.68,10.29v7.5h-3.83V79.68l-6.51-10.4v-.22h4.45l4.06,7,4.22-7Z"/><path class="cls-1" d="M337.91,85.29l1.78-2.75a9.39,9.39,0,0,0,5.06,1.64,5.09,5.09,0,0,0,2.49-.5,1.61,1.61,0,0,0,.9-1.5,1.63,1.63,0,0,0-.29-1,2.81,2.81,0,0,0-1-.78c-.49-.25-1.22-.57-2.21-1l-.64-.25a19.62,19.62,0,0,1-2.86-1.34,4.92,4.92,0,0,1-1.72-1.64,4.57,4.57,0,0,1-.64-2.53,4.15,4.15,0,0,1,1-2.82,5.66,5.66,0,0,1,2.5-1.65,10,10,0,0,1,3.26-.53,10.94,10.94,0,0,1,3.21.51,12.36,12.36,0,0,1,3.15,1.52l-1.79,2.72a13.62,13.62,0,0,0-2.35-1.16,6.61,6.61,0,0,0-2.21-.37,3.65,3.65,0,0,0-2,.45,1.38,1.38,0,0,0-.67,1.2,1.4,1.4,0,0,0,.27.84,3,3,0,0,0,1,.75,18.25,18.25,0,0,0,2.07.88l.61.22a25.67,25.67,0,0,1,2.86,1.25,5.23,5.23,0,0,1,1.84,1.67A4.91,4.91,0,0,1,352.2,82a4.85,4.85,0,0,1-.94,3,5.64,5.64,0,0,1-2.57,1.85,10.42,10.42,0,0,1-3.69.61A11.54,11.54,0,0,1,337.91,85.29Z"/><path class="cls-1" d="M368.52,69.06v3.36H362.8V87.07H359V72.42H353.2V69.06Z"/><path class="cls-1" d="M385.15,86.85v.22h-4.42l-4.52-6.56h-1.52v6.56h-3.83v-18h6a9.57,9.57,0,0,1,4,.74,5.28,5.28,0,0,1,2.38,2,5.43,5.43,0,0,1,.77,2.87A5.32,5.32,0,0,1,380.31,80Zm-10.46-9.31h1.74a4.53,4.53,0,0,0,2.62-.64,2.38,2.38,0,0,0,.93-2.11,2.27,2.27,0,0,0-.83-1.92,3.64,3.64,0,0,0-2.3-.64h-2.16Z"/><path class="cls-1" d="M390.28,86.27a7.71,7.71,0,0,1-3-3.32,11.33,11.33,0,0,1-1-4.94,10.07,10.07,0,0,1,1.25-5.21,7.92,7.92,0,0,1,3.33-3.12,10.38,10.38,0,0,1,4.6-1,9.42,9.42,0,0,1,4.9,1.2,7.44,7.44,0,0,1,3,3.32,11.28,11.28,0,0,1,1,4.93,10,10,0,0,1-1.24,5.21,7.76,7.76,0,0,1-3.31,3.12,10.25,10.25,0,0,1-4.6,1A9.39,9.39,0,0,1,390.28,86.27ZM398,83.5a4.41,4.41,0,0,0,1.72-2.11,8.45,8.45,0,0,0,.57-3.24,7.51,7.51,0,0,0-1.25-4.6,4.29,4.29,0,0,0-3.64-1.66,4.61,4.61,0,0,0-3.81,1.63A7,7,0,0,0,390.26,78a7.49,7.49,0,0,0,1.25,4.6,4.31,4.31,0,0,0,3.67,1.66A5.1,5.1,0,0,0,398,83.5Z"/><path class="cls-1" d="M419.37,72.26h-8.2v4.5h7.09l-.45,3.17h-6.64v7.14h-3.84v-18h12Z"/><path class="cls-1" d="M422.18,87.07v-18H426v18Z"/><path class="cls-1" d="M438.19,77.57l7.51,9.28v.22h-4.86l-7-8.92v8.92H430v-18h3.83V77.4l7-8.34h4.5v.22Z"/><path class="cls-1" d="M450.07,86.27A7.75,7.75,0,0,1,447,83,11.18,11.18,0,0,1,446,78a10.07,10.07,0,0,1,1.25-5.21,7.9,7.9,0,0,1,3.32-3.12,10.46,10.46,0,0,1,4.61-1,9.42,9.42,0,0,1,4.9,1.2,7.44,7.44,0,0,1,3,3.32,11.28,11.28,0,0,1,1,4.93,10,10,0,0,1-1.24,5.21,7.76,7.76,0,0,1-3.31,3.12,10.25,10.25,0,0,1-4.6,1A9.45,9.45,0,0,1,450.07,86.27Zm7.7-2.77a4.43,4.43,0,0,0,1.73-2.11,8.45,8.45,0,0,0,.57-3.24,7.51,7.51,0,0,0-1.25-4.6,4.31,4.31,0,0,0-3.64-1.66,4.61,4.61,0,0,0-3.81,1.63A7,7,0,0,0,450.06,78a7.49,7.49,0,0,0,1.25,4.6A4.31,4.31,0,0,0,455,84.24,5.07,5.07,0,0,0,457.77,83.5Z"/><path class="cls-1" d="M478.33,69.06h4v.22l-6.58,17.79h-4.37L464.8,69.28v-.22H469l4.69,14Z"/></g></g></svg>