<svg xmlns="http://www.w3.org/2000/svg" viewBox="0 0 364.54 97.04"><defs><style>.cls-1,.cls-2,.cls-6{fill:#fff;}.cls-2{font-size:42px;}.cls-2,.cls-6{font-family:Dubai-Bold, Dubai;font-weight:700;}.cls-3{letter-spacing:-0.01em;}.cls-4{letter-spacing:-0.03em;}.cls-5{letter-spacing:-0.03em;}.cls-6{font-size:20px;}.cls-7{letter-spacing:-0.04em;}.cls-8{letter-spacing:-0.05em;}.cls-9{letter-spacing:-0.03em;}.cls-10{letter-spacing:-0.01em;}.cls-11{letter-spacing:0em;}.cls-12{letter-spacing:-0.01em;}.cls-13{letter-spacing:-0.03em;}.cls-14{letter-spacing:-0.03em;}</style></defs><g id="Layer_2" data-name="Layer 2"><g id="Layer_1-2" data-name="Layer 1"><path class="cls-1" d="M31.33,35.58l2.32.87c8.61,4.18,15.49-5.71,4.27-15.19L29,12.38l1.16-7.83C10.62,15.44.94,40,0,65.46v1A20.74,20.74,0,1,0,28.84,47.39L27.93,47C20.42,43.45,24.37,32.68,31.33,35.58ZM28.57,22.1a2.32,2.32,0,1,1-2.32,2.32A2.32,2.32,0,0,1,28.57,22.1ZM21.89,77a10.59,10.59,0,1,1,9.38-9.37A10.6,10.6,0,0,1,21.89,77Zm-.63-5.8A4.75,4.75,0,1,1,25.46,67,4.75,4.75,0,0,1,21.26,71.2Z"/><text class="cls-2" transform="translate(64.7 37.59)"><tspan class="cls-3">Š</tspan><tspan class="cls-4" x="23.14" y="0">A</tspan><tspan x="49.94" y="0">CH</tspan><tspan class="cls-5" x="104.45" y="0">O</tspan><tspan x="133.89" y="0">VÝ K</tspan><tspan class="cls-4" x="224.7" y="0">L</tspan><tspan x="245.32" y="0">UB</tspan></text><text class="cls-6" transform="translate(64.7 62.64)">MUSKULÁRN<tspan class="cls-7" x="118.74" y="0">Y</tspan><tspan x="130.56" y="0">CH</tspan></text><text class="cls-6" transform="translate(64.7 85.86)"><tspan class="cls-8">D</tspan><tspan class="cls-9" x="12.68" y="0">Y</tspan><tspan class="cls-10" x="24.8" y="0">S</tspan><tspan class="cls-11" x="35.92" y="0">T</tspan><tspan class="cls-12" x="47.46" y="0">R</tspan><tspan x="59.18" y="0">OFI</tspan><tspan class="cls-13" x="90" y="0">K</tspan><tspan class="cls-14" x="102.2" y="0">O</tspan><tspan x="116.22" y="0">V</tspan></text></g></g></svg>